<?xml version="1.0" encoding="UTF-8"?>
<svg xmlns="http://www.w3.org/2000/svg" width="2400" height="1400" viewBox="0 0 2400 1400">
  <defs>
    <linearGradient id="bg" x1="0" y1="0" x2="0" y2="1">
      <stop offset="0%%" stop-color="#7fa6a1"/>
      <stop offset="100%%" stop-color="#6f9792"/>
    </linearGradient>
    <pattern id="dots" patternUnits="userSpaceOnUse" width="12" height="12">
      <path d="M0 0h12v12H0z" fill="none"/>
      <circle cx="1" cy="1" r="0.6" fill="rgba(255,255,255,0.18)"/>
    </pattern>
    <filter id="softBlur" x="-20%%" y="-20%%" width="140%%" height="140%%">
      <feGaussianBlur stdDeviation="20"/>
    </filter>
  </defs>
  <rect width="100%%" height="100%%" fill="url(#bg)"/>
  <g filter="url(#softBlur)" opacity="0.25">
    <circle cx="400" cy="220" r="220" fill="#bfe3de"/>
    <circle cx="2100" cy="400" r="260" fill="#a8d3cc"/>
    <circle cx="1200" cy="1100" r="320" fill="#b5ddd7"/>
  </g>
  <g stroke="white" stroke-width="1" opacity="0.55" fill="none">
    <path d="M-50,350 C300,250 500,520 820,420 1140,320 1320,520 1600,480 1880,440 2080,240 2450,360"/>
    <path d="M-50,500 C280,420 520,660 860,560 1200,460 1400,680 1700,620 2000,560 2200,380 2450,520"/>
    <path d="M-50,760 C260,680 520,860 900,800 1280,740 1480,940 1780,900 2080,860 2280,720 2450,800"/>
  </g>
  <g stroke="white" stroke-width="0.6" opacity="0.25">
<line x1="0" y1="0" x2="0" y2="1400" />
<line x1="60" y1="0" x2="60" y2="1400" />
<line x1="120" y1="0" x2="120" y2="1400" />
<line x1="180" y1="0" x2="180" y2="1400" />
<line x1="240" y1="0" x2="240" y2="1400" />
<line x1="300" y1="0" x2="300" y2="1400" />
<line x1="360" y1="0" x2="360" y2="1400" />
<line x1="420" y1="0" x2="420" y2="1400" />
<line x1="480" y1="0" x2="480" y2="1400" />
<line x1="540" y1="0" x2="540" y2="1400" />
<line x1="600" y1="0" x2="600" y2="1400" />
<line x1="660" y1="0" x2="660" y2="1400" />
<line x1="720" y1="0" x2="720" y2="1400" />
<line x1="780" y1="0" x2="780" y2="1400" />
<line x1="840" y1="0" x2="840" y2="1400" />
<line x1="900" y1="0" x2="900" y2="1400" />
<line x1="960" y1="0" x2="960" y2="1400" />
<line x1="1020" y1="0" x2="1020" y2="1400" />
<line x1="1080" y1="0" x2="1080" y2="1400" />
<line x1="1140" y1="0" x2="1140" y2="1400" />
<line x1="1200" y1="0" x2="1200" y2="1400" />
<line x1="1260" y1="0" x2="1260" y2="1400" />
<line x1="1320" y1="0" x2="1320" y2="1400" />
<line x1="1380" y1="0" x2="1380" y2="1400" />
<line x1="1440" y1="0" x2="1440" y2="1400" />
<line x1="1500" y1="0" x2="1500" y2="1400" />
<line x1="1560" y1="0" x2="1560" y2="1400" />
<line x1="1620" y1="0" x2="1620" y2="1400" />
<line x1="1680" y1="0" x2="1680" y2="1400" />
<line x1="1740" y1="0" x2="1740" y2="1400" />
<line x1="1800" y1="0" x2="1800" y2="1400" />
<line x1="1860" y1="0" x2="1860" y2="1400" />
<line x1="1920" y1="0" x2="1920" y2="1400" />
<line x1="1980" y1="0" x2="1980" y2="1400" />
<line x1="2040" y1="0" x2="2040" y2="1400" />
<line x1="2100" y1="0" x2="2100" y2="1400" />
<line x1="2160" y1="0" x2="2160" y2="1400" />
<line x1="2220" y1="0" x2="2220" y2="1400" />
<line x1="2280" y1="0" x2="2280" y2="1400" />
<line x1="2340" y1="0" x2="2340" y2="1400" />
<line x1="2400" y1="0" x2="2400" y2="1400" />
  </g>
  <rect x="1600" y="880" width="700" height="420" fill="url(#dots)" opacity="0.35"/>
</svg>